<svg width="226.98125px" height="125.6px" xmlns="http://www.w3.org/2000/svg" viewBox="136.509375 12.200000000000003 226.98125 125.6" style="background: none;" preserveAspectRatio="xMidYMid"><defs><filter id="editing-cake" x="-100%" y="-100%" width="300%" height="300%"><feFlood flood-color="none" result="flood-shadow"></feFlood><feFlood flood-color="none"></feFlood><feComposite operator="in" in2="SourceAlpha"></feComposite><feConvolveMatrix order="7,10" divisor="1" result="conv" kernelMatrix="0 0 0 1 0 0 0 0 0 1 0 1 0 0 0 0 1 0 1 0 0 0 1 0 0 0 1 0 0 1 0 0 0 1 0 0 1 0 0 0 1 0 1 0 0 0 0 0 1 1 0 0 0 0 0 1 0 1 1 0 1 1 0 0 0 0 1 0 0 0 "></feConvolveMatrix><feGaussianBlur stdDeviation="0.5"></feGaussianBlur><feOffset dy="4" result="offset"></feOffset><feComposite operator="in" in="flood-shadow" in2="offset"></feComposite><feGaussianBlur stdDeviation="4"></feGaussianBlur><feComponentTransfer><feFuncA type="linear" slope="0.7" intercept="-0.2"></feFuncA></feComponentTransfer><feOffset dy="4" result="shadow"></feOffset><feGaussianBlur in="SourceGraphic" stdDeviation="0.5"></feGaussianBlur><feOffset dy="0" result="x0"></feOffset><feGaussianBlur in="SourceGraphic" stdDeviation="1"></feGaussianBlur><feComponentTransfer><feFuncA type="linear" slope="0.8" intercept="-.01"></feFuncA></feComponentTransfer><feOffset dy="1" result="x1"></feOffset><feGaussianBlur in="SourceGraphic" stdDeviation="2"></feGaussianBlur><feComponentTransfer><feFuncA type="linear" slope="0.7" intercept="-.01"></feFuncA></feComponentTransfer><feOffset dy="2" result="x2"></feOffset><feGaussianBlur in="SourceGraphic" stdDeviation="3"></feGaussianBlur><feComponentTransfer><feFuncA type="linear" slope="0.6" intercept="-.01"></feFuncA></feComponentTransfer><feOffset dy="3" result="x3"></feOffset><feMerge><feMergeNode in="shadow"></feMergeNode><feMergeNode in="offset"></feMergeNode><feMergeNode in="x3"></feMergeNode><feMergeNode in="x2"></feMergeNode><feMergeNode in="x1"></feMergeNode><feMergeNode in="x0"></feMergeNode></feMerge></filter></defs><g filter="url(#editing-cake)"><g transform="translate(172.88001155853271, 99.38500022888184)"><path d="M6.98-47.49L11.58-47.49L11.58-47.49Q12.35-47.49 12.35-46.66L12.35-46.66L12.35-1.09L12.35-1.09Q12.35-0.45 12.10-0.22L12.10-0.22L12.10-0.22Q11.84 0 11.20 0L11.20 0L7.17 0L7.17 0Q6.59 0 6.40-0.19L6.40-0.19L6.40-0.19Q6.21-0.38 6.21-0.90L6.21-0.90L6.21-46.59L6.21-46.59Q6.21-47.49 6.98-47.49L6.98-47.49ZM56.32-47.49L60.10-47.49L60.10-47.49Q60.48-47.49 60.64-47.33L60.64-47.33L60.64-47.33Q60.80-47.17 60.80-46.72L60.80-46.72L60.80-0.77L60.80-0.77Q60.80 0 59.97 0L59.97 0L56.83 0L56.83 0Q56.32 0 56.03-0.10L56.03-0.10L56.03-0.10Q55.74-0.19 55.49-0.51L55.49-0.51L30.78-36.42L30.78-36.42Q30.53-36.86 30.30-36.80L30.30-36.80L30.30-36.80Q30.08-36.74 30.08-36.35L30.08-36.35L30.08-0.83L30.08-0.83Q30.08 0 29.18 0L29.18 0L25.60 0L25.60 0Q24.77 0 24.77-0.83L24.77-0.83L24.77-46.59L24.77-46.59Q24.77-47.10 24.93-47.30L24.93-47.30L24.93-47.30Q25.09-47.49 25.60-47.49L25.60-47.49L29.25-47.49L29.25-47.49Q29.76-47.49 30.02-47.36L30.02-47.36L30.02-47.36Q30.27-47.23 30.59-46.85L30.59-46.85L54.59-11.71L54.59-11.71Q54.91-11.33 55.17-11.33L55.17-11.33L55.17-11.33Q55.55-11.33 55.55-11.90L55.55-11.90L55.55-46.72L55.55-46.72Q55.55-47.49 56.32-47.49L56.32-47.49ZM73.22-46.59L73.22-46.59Q73.22-47.49 73.98-47.49L73.98-47.49L102.14-47.49L102.14-47.49Q102.78-47.49 102.78-46.78L102.78-46.78L102.78-43.52L102.78-43.52Q102.78-42.75 101.95-42.75L101.95-42.75L80.19-42.75L80.19-42.75Q79.68-42.75 79.52-42.59L79.52-42.59L79.52-42.59Q79.36-42.43 79.36-41.98L79.36-41.98L79.36-26.24L79.36-26.24Q79.36-25.54 80.06-25.54L80.06-25.54L97.15-25.54L97.15-25.54Q97.86-25.54 97.86-24.90L97.86-24.90L97.86-21.50L97.86-21.50Q97.86-21.18 97.70-21.06L97.70-21.06L97.70-21.06Q97.54-20.93 97.15-20.93L97.15-20.93L80.06-20.93L80.06-20.93Q79.36-20.93 79.36-20.22L79.36-20.22L79.36-0.83L79.36-0.83Q79.36 0 78.46 0L78.46 0L74.11 0L74.11 0Q73.60 0 73.41-0.19L73.41-0.19L73.41-0.19Q73.22-0.38 73.22-0.90L73.22-0.90L73.22-46.59ZM127.74 0.64L127.74 0.64Q121.47 0.64 116.90-2.18L116.90-2.18L116.90-2.18Q112.32-4.99 109.89-10.43L109.89-10.43L109.89-10.43Q107.46-15.87 107.46-23.55L107.46-23.55L107.46-23.55Q107.46-31.30 109.92-36.83L109.92-36.83L109.92-36.83Q112.38-42.37 116.96-45.25L116.96-45.25L116.96-45.25Q121.54-48.13 127.81-48.13L127.81-48.13L127.81-48.13Q134.02-48.13 138.59-45.25L138.59-45.25L138.59-45.25Q143.17-42.37 145.60-36.86L145.60-36.86L145.60-36.86Q148.03-31.36 148.03-23.62L148.03-23.62L148.03-23.62Q148.03-15.94 145.60-10.50L145.60-10.50L145.60-10.50Q143.17-5.06 138.59-2.21L138.59-2.21L138.59-2.21Q134.02 0.64 127.74 0.64L127.74 0.64ZM127.87-4.03L127.87-4.03Q134.78-4.03 138.21-8.83L138.21-8.83L138.21-8.83Q141.63-13.63 141.63-23.55L141.63-23.55L141.63-23.55Q141.63-33.66 138.14-38.56L138.14-38.56L138.14-38.56Q134.66-43.46 127.81-43.46L127.81-43.46L127.81-43.46Q120.83-43.46 117.34-38.53L117.34-38.53L117.34-38.53Q113.86-33.60 113.86-23.55L113.86-23.55L113.86-23.55Q113.86-13.63 117.34-8.83L117.34-8.83L117.34-8.83Q120.83-4.03 127.87-4.03L127.87-4.03Z" fill="#f3b63f"></path></g></g><style>text {
  font-size: 64px;
  font-family: Arial Black;
  dominant-baseline: central;
  text-anchor: middle;
}</style></svg>